<?xml version="1.0" encoding="iso-8859-1"?>
<!-- Generator: Adobe Illustrator 18.1.1, SVG Export Plug-In . SVG Version: 6.00 Build 0)  -->
<svg version="1.1" id="&#x7EC4;_1_1_" xmlns="http://www.w3.org/2000/svg" xmlns:xlink="http://www.w3.org/1999/xlink" x="0px"
	 y="0px" viewBox="514.791 668.413 102.047 17.549" style="enable-background:new 514.791 668.413 102.047 17.549;"
	 xml:space="preserve">
<g id="A">
	<g>
		<path d="M598.594,668.413h-3.967l-8.833,14.289v0.109h9.337v-3.375h-3.351L598.594,668.413z M596.818,673.882v8.929h1.713
			l1.661-2.688v-11.701L596.818,673.882z"/>
	</g>
</g>
<g id="Z">
	<g>
		<path d="M544.599,668.637h-2.732h-8.423l-1.645,2.661v0.713h6.746l-6.746,10.915v0.109h2.983h6.354v-3.375h-3.351L544.599,668.637
			z M542.779,679.608l0.045,3.428h1.713l1.661-2.688v-0.741H542.779z"/>
	</g>
</g>
<g id="EALOT">
	<g>
		<path d="M553.171,681.065v1.669h-4.179h-1.669v-1.669v-0.891v-1.669v-2.576v-1.669h1.669h3.904v1.669h-3.904v2.576h2.479v1.669
			h-2.479v0.891H553.171z"/>
		<path d="M562.777,682.734h-1.669l-0.275-0.68c-0.664,0.437-1.458,0.68-2.3,0.68s-1.637-0.243-2.284-0.68l-0.275,0.68h-1.669
			l3.402-8.473h1.669L562.777,682.734z M560.234,680.579l-1.199-2.981l-0.502-1.247l-1.685,4.228c0.453,0.373,1.037,0.6,1.685,0.6
			C559.18,681.179,559.78,680.952,560.234,680.579z"/>
		<path d="M569.499,681.065v1.669h-4.082h-1.669v-1.669v-6.804h1.669v6.804H569.499z"/>
		<path d="M579.413,678.489c0,2.333-1.896,4.245-4.228,4.245c-2.349,0-4.244-1.912-4.244-4.245c0-2.349,1.895-4.245,4.244-4.245
			C577.517,674.245,579.413,676.14,579.413,678.489z M577.89,678.489c0-1.506-1.215-2.706-2.706-2.706
			c-1.506,0-2.722,1.199-2.722,2.706c0,1.49,1.215,2.706,2.722,2.706C576.675,681.195,577.89,679.979,577.89,678.489z"/>
		<path d="M587.236,675.914h-2.479v6.82h-1.669v-6.82h-2.479v-1.669h6.626V675.914z"/>
	</g>
</g>
<g id="lie">
	<g>
		<path d="M606.844,681.065v1.669h-4.082h-1.669v-1.669v-6.804h1.669v6.804H606.844z"/>
		<path d="M608.285,682.734v-8.473h1.669v8.473H608.285L608.285,682.734z"/>
		<path d="M616.838,681.065v1.669h-4.179h-1.669v-1.669v-0.891v-1.669v-2.576v-1.669h1.669h3.904v1.669h-3.904v2.576h2.479v1.669
			h-2.479v0.891H616.838z"/>
	</g>
</g>
</svg>
