<?xml version="1.0" encoding="iso-8859-1"?>
<!-- Generator: Adobe Illustrator 18.1.1, SVG Export Plug-In . SVG Version: 6.00 Build 0)  -->
<svg version="1.1" id="&#x7EC4;_1_1_" xmlns="http://www.w3.org/2000/svg" xmlns:xlink="http://www.w3.org/1999/xlink" x="0px"
	 y="0px" viewBox="514.795 668.413 102.047 17.549" style="enable-background:new 514.795 668.413 102.047 17.549;"
	 xml:space="preserve">
<g id="A">
	<g>
		<path style="fill:#FFFFFF;" d="M598.597,668.413h-3.967l-8.832,14.289v0.109h9.337v-3.375h-3.351L598.597,668.413z
			 M596.823,673.882v8.929h1.713l1.661-2.688v-11.701L596.823,673.882z"/>
	</g>
</g>
<g id="Z">
	<g>
		<path style="fill:#FFFFFF;" d="M544.603,668.638h-2.732h-8.423l-1.645,2.662v0.713h6.746l-6.746,10.915v0.109h2.983h6.354v-3.375
			h-3.351L544.603,668.638z M542.783,679.608l0.045,3.428h1.713l1.661-2.688v-0.74H542.783L542.783,679.608z"/>
	</g>
</g>
<g id="EALOT">
	<g>
		<path style="fill:#FFFFFF;" d="M553.175,681.065v1.669h-4.179h-1.669v-1.669v-0.891v-1.669v-2.576v-1.669h1.669h3.904v1.669
			h-3.904v2.576h2.479v1.669h-2.479v0.891H553.175z"/>
		<path style="fill:#FFFFFF;" d="M562.781,682.734h-1.669l-0.275-0.68c-0.664,0.437-1.458,0.68-2.3,0.68
			c-0.843,0-1.636-0.243-2.284-0.68l-0.275,0.68h-1.669l3.402-8.473h1.669L562.781,682.734z M560.238,680.579l-1.199-2.981
			l-0.502-1.247l-1.685,4.228c0.454,0.373,1.037,0.6,1.685,0.6C559.185,681.179,559.784,680.952,560.238,680.579z"/>
		<path style="fill:#FFFFFF;" d="M569.503,681.065v1.669h-4.083h-1.669v-1.669v-6.804h1.669v6.804H569.503z"/>
		<path style="fill:#FFFFFF;" d="M579.417,678.489c0,2.333-1.895,4.244-4.228,4.244c-2.349,0-4.244-1.912-4.244-4.244
			c0-2.349,1.895-4.245,4.244-4.245C577.522,674.245,579.417,676.14,579.417,678.489z M577.894,678.489
			c0-1.507-1.215-2.705-2.705-2.705c-1.506,0-2.722,1.199-2.722,2.705c0,1.49,1.215,2.705,2.722,2.705
			C576.679,681.195,577.894,679.98,577.894,678.489z"/>
		<path style="fill:#FFFFFF;" d="M587.241,675.914h-2.479v6.82h-1.669v-6.82h-2.478v-1.669h6.626
			C587.241,674.245,587.241,675.914,587.241,675.914z"/>
	</g>
</g>
<g id="lie">
	<g>
		<path style="fill:#FFFFFF;" d="M606.848,681.065v1.669h-4.083h-1.668v-1.669v-6.804h1.669v6.804H606.848z"/>
		<path style="fill:#FFFFFF;" d="M608.289,682.734v-8.473h1.669v8.473H608.289z"/>
		<path style="fill:#FFFFFF;" d="M616.842,681.065v1.669h-4.18h-1.669v-1.669v-0.891v-1.669v-2.576v-1.669h1.669h3.904v1.669h-3.904
			v2.576h2.479v1.669h-2.479v0.891H616.842z"/>
	</g>
</g>
</svg>
